# xmcd
#
# Track frame offsets: 
#        150
#        13895
#        32138
#        46403
#        60418
#        75952
#        90884
#        101215
#        113433
#        129798
#        141116
#        154660
#        166791
#
# Disc length: 2400 seconds
#
# Revision: 0
# Processed by: cddbd v1.5.1PL2 Copyright (c) Steve Scherf et al.
# Submitted via: ExactAudioCopy v0.95b4
#
DISCID=8d095e0d
DTITLE=The Jot-Em Down Boys - Covered Bridges
DYEAR=1900
DGENRE=Bluegrass
TTITLE0=Cabin In The Mountains
TTITLE1=The Mountain Cries
TTITLE2=Covered Bridges
TTITLE3=Southern Flavor
TTITLE4=A Litter Higher
TTITLE5=I Can't Wait
TTITLE6=Pretty Girl
TTITLE7=Dahlonega
TTITLE8=Cookoo Bird
TTITLE9=Fire On The Mountain
TTITLE10=World Awaits The Sunrise
TTITLE11=Ole Joe Clark
TTITLE12=Turkey Knobb
EXTD=
EXTT0=
EXTT1=
EXTT2=
EXTT3=
EXTT4=
EXTT5=
EXTT6=
EXTT7=
EXTT8=
EXTT9=
EXTT10=
EXTT11=
EXTT12=
PLAYORDER=
